<svg width="24" height="24" viewBox="0 0 24 24" fill="none" xmlns="http://www.w3.org/2000/svg">
<path d="M20 0H3V3H1V5H3V7H1V9H3V11H1V13H3V15H1V17H3V19H1V21H3V24H20C20.7956 24 21.5587 23.6839 22.1213 23.1213C22.6839 22.5587 23 21.7956 23 21V3C23 2.20435 22.6839 1.44129 22.1213 0.87868C21.5587 0.31607 20.7956 0 20 0V0ZM21 21C21 21.2652 20.8946 21.5196 20.7071 21.7071C20.5196 21.8946 20.2652 22 20 22H5V2H20C20.2652 2 20.5196 2.10536 20.7071 2.29289C20.8946 2.48043 21 2.73478 21 3V21ZM13 12C13.5933 12 14.1734 11.8241 14.6667 11.4944C15.1601 11.1648 15.5446 10.6962 15.7716 10.1481C15.9987 9.59987 16.0581 8.99667 15.9424 8.41473C15.8266 7.83279 15.5409 7.29824 15.1213 6.87868C14.7018 6.45912 14.1672 6.1734 13.5853 6.05764C13.0033 5.94189 12.4001 6.0013 11.8519 6.22836C11.3038 6.45542 10.8352 6.83994 10.5056 7.33329C10.1759 7.82664 10 8.40666 10 9C10 9.79565 10.3161 10.5587 10.8787 11.1213C11.4413 11.6839 12.2044 12 13 12ZM18 16V18H16V16C16 15.7348 15.8946 15.4804 15.7071 15.2929C15.5196 15.1054 15.2652 15 15 15H11C10.7348 15 10.4804 15.1054 10.2929 15.2929C10.1054 15.4804 10 15.7348 10 16V18H8V16C8 15.2044 8.31607 14.4413 8.87868 13.8787C9.44129 13.3161 10.2044 13 11 13H15C15.7956 13 16.5587 13.3161 17.1213 13.8787C17.6839 14.4413 18 15.2044 18 16Z" fill="white"/>
</svg>
