<svg width="22" height="24" viewBox="0 0 22 24" fill="none" xmlns="http://www.w3.org/2000/svg">
<path d="M19 0H2V3H0V5H2V7H0V9H2V11H0V13H2V15H0V17H2V19H0V21H2V24H19C19.7956 24 20.5587 23.6839 21.1213 23.1213C21.6839 22.5587 22 21.7956 22 21V3C22 2.20435 21.6839 1.44129 21.1213 0.87868C20.5587 0.31607 19.7956 0 19 0V0ZM20 21C20 21.2652 19.8946 21.5196 19.7071 21.7071C19.5196 21.8946 19.2652 22 19 22H4V2H19C19.2652 2 19.5196 2.10536 19.7071 2.29289C19.8946 2.48043 20 2.73478 20 3V21ZM12 12C12.5933 12 13.1734 11.8241 13.6667 11.4944C14.1601 11.1648 14.5446 10.6962 14.7716 10.1481C14.9987 9.59987 15.0581 8.99667 14.9424 8.41473C14.8266 7.83279 14.5409 7.29824 14.1213 6.87868C13.7018 6.45912 13.1672 6.1734 12.5853 6.05764C12.0033 5.94189 11.4001 6.0013 10.8519 6.22836C10.3038 6.45542 9.83524 6.83994 9.50559 7.33329C9.17595 7.82664 9 8.40666 9 9C9 9.79565 9.31607 10.5587 9.87868 11.1213C10.4413 11.6839 11.2044 12 12 12ZM17 16V18H15V16C15 15.7348 14.8946 15.4804 14.7071 15.2929C14.5196 15.1054 14.2652 15 14 15H10C9.73478 15 9.48043 15.1054 9.29289 15.2929C9.10536 15.4804 9 15.7348 9 16V18H7V16C7 15.2044 7.31607 14.4413 7.87868 13.8787C8.44129 13.3161 9.20435 13 10 13H14C14.7956 13 15.5587 13.3161 16.1213 13.8787C16.6839 14.4413 17 15.2044 17 16Z" fill="#374957"/>
</svg>
