<svg width="24" height="24" viewBox="0 0 24 24" fill="none" xmlns="http://www.w3.org/2000/svg">
<g clip-path="url(#clip0_1616_223)">
<path d="M22 15.999V20.999C22 21.2642 21.8946 21.5186 21.7071 21.7061C21.5196 21.8937 21.2652 21.999 21 21.999H3C2.73478 21.999 2.48043 21.8937 2.29289 21.7061C2.10536 21.5186 2 21.2642 2 20.999V15.999H0V20.999C0 21.7947 0.31607 22.5577 0.87868 23.1203C1.44129 23.6829 2.20435 23.999 3 23.999H21C21.7956 23.999 22.5587 23.6829 23.1213 23.1203C23.6839 22.5577 24 21.7947 24 20.999V15.999H22Z" fill="#6B6969"/>
<path d="M11.967 -0.000476908C11.5732 -0.00156251 11.1831 0.0750801 10.8189 0.225058C10.4548 0.375036 10.1238 0.595401 9.84503 0.873523L5.92603 4.79252L7.34003 6.20652L10.974 2.57352L11 18.9995H13L12.974 2.58752L16.593 6.20652L18.007 4.79252L14.088 0.873523C13.8094 0.595432 13.4786 0.375078 13.1146 0.225097C12.7507 0.0751165 12.3607 -0.00154013 11.967 -0.000476908V-0.000476908Z" fill="#6B6969"/>
</g>
<defs>
<clipPath id="clip0_1616_223">
<rect width="24" height="24" fill="white"/>
</clipPath>
</defs>
</svg>
